<?xml version="1.0" encoding="UTF-8" standalone="no"?>
<!-- Created with Inkscape (http://www.inkscape.org/) -->

<svg
   xmlns:dc="http://purl.org/dc/elements/1.1/"
   xmlns:cc="http://creativecommons.org/ns#"
   xmlns:rdf="http://www.w3.org/1999/02/22-rdf-syntax-ns#"
   xmlns:svg="http://www.w3.org/2000/svg"
   xmlns="http://www.w3.org/2000/svg"
   xmlns:sodipodi="http://sodipodi.sourceforge.net/DTD/sodipodi-0.dtd"
   xmlns:inkscape="http://www.inkscape.org/namespaces/inkscape"
   width="90mm"
   height="50mm"
   viewBox="0 0 179.94819 83.802459"
   id="svg3346"
   version="1.1"
   inkscape:version="0.91 r13725"
   sodipodi:docname="LIClogo.svg">
  <defs
     id="defs3348">
    <filter
       style="color-interpolation-filters:sRGB"
       inkscape:label="Drop Shadow"
       id="filter5893">
      <feFlood
         flood-opacity="0.498039"
         flood-color="rgb(0,0,0)"
         result="flood"
         id="feFlood5895" />
      <feComposite
         in="flood"
         in2="SourceGraphic"
         operator="in"
         result="composite1"
         id="feComposite5897" />
      <feGaussianBlur
         in="composite1"
         stdDeviation="2.3"
         result="blur"
         id="feGaussianBlur5899" />
      <feOffset
         dx="3.1"
         dy="3.4"
         result="offset"
         id="feOffset5901" />
      <feComposite
         in="SourceGraphic"
         in2="offset"
         operator="over"
         result="composite2"
         id="feComposite5903" />
    </filter>
  </defs>
  <sodipodi:namedview
     inkscape:document-units="mm"
     pagecolor="#ffffff"
     bordercolor="#666666"
     borderopacity="1.0"
     inkscape:pageopacity="0.0"
     inkscape:pageshadow="2"
     inkscape:zoom="6.4114948"
     inkscape:cx="72.527649"
     inkscape:cy="49.013102"
     inkscape:current-layer="g4162"
     id="namedview3350"
     showgrid="false"
     inkscape:window-width="1920"
     inkscape:window-height="1017"
     inkscape:window-x="-8"
     inkscape:window-y="-8"
     inkscape:window-maximized="1"
     borderlayer="true"
     fit-margin-top="0"
     fit-margin-left="0"
     fit-margin-right="0"
     fit-margin-bottom="0" />
  <metadata
     id="metadata3352">
    <rdf:RDF>
      <cc:Work
         rdf:about="">
        <dc:format>image/svg+xml</dc:format>
        <dc:type
           rdf:resource="http://purl.org/dc/dcmitype/StillImage" />
        <dc:title />
      </cc:Work>
    </rdf:RDF>
  </metadata>
  <g
     inkscape:label="Layer 1"
     inkscape:groupmode="layer"
     id="layer1"
     transform="translate(-68.097231,-65.310685)">
    <g
       id="g4765"
       inkscape:export-xdpi="90"
       inkscape:export-ydpi="90"
       transform="translate(4.4621008,43.702333)"
       style="filter:url(#filter5893)">
      <g
         id="g4162">
        <ellipse
           style="fill:#ff9900;fill-opacity:1;fill-rule:evenodd;stroke:none;stroke-width:0.28222221px;stroke-linecap:butt;stroke-linejoin:miter;stroke-opacity:1"
           id="path3355"
           cx="116.68297"
           cy="58.539646"
           rx="34.127335"
           ry="33.802311" />
        <path
           style="fill:#ff9900;fill-opacity:1;fill-rule:evenodd;stroke:none;stroke-width:0.28222221px;stroke-linecap:butt;stroke-linejoin:miter;stroke-opacity:1"
           d="m 115.81267,34.441809 c -2.24646,-4.025328 48.2755,-2.271405 118.20332,20.847616 C 189.41823,42.515402 145.84922,38.367817 135.85928,40.98845 Z"
           id="path3361"
           inkscape:connector-curvature="0"
           sodipodi:nodetypes="cccc" />
        <path
           style="fill:#ff9900;fill-opacity:1;fill-rule:evenodd;stroke:none;stroke-width:0.25464669px;stroke-linecap:butt;stroke-linejoin:miter;stroke-opacity:1"
           d="m 109.75522,59.45718 c 10.4325,-13.156434 57.8696,-6.212245 88.29134,2.249666 -36.63185,-4.652206 -66.04419,-6.475975 -76.49978,-2.399819 z"
           id="path3361-5"
           inkscape:connector-curvature="0"
           sodipodi:nodetypes="cccc" />
        <path
           style="fill:#ff9900;fill-opacity:1;fill-rule:evenodd;stroke:none;stroke-width:0.19663364px;stroke-linecap:butt;stroke-linejoin:miter;stroke-opacity:1"
           d="m 114.35231,80.439746 c -0.27666,-3.063898 -4.35067,-20.33439 54.00275,-11.026437 -22.18956,-2.236806 -44.88305,-1.004486 -47.16993,9.513541 z"
           id="path3361-5-7"
           inkscape:connector-curvature="0"
           sodipodi:nodetypes="cccc" />
        <path
           style="fill:#000000;fill-rule:evenodd;stroke:#000000;stroke-width:0.29870021px;stroke-linecap:butt;stroke-linejoin:miter;stroke-opacity:1"
           d="M 58.712891 18.376953 L 52.404297 18.865234 L 49.494141 23.255859 L 43.1875 20.572266 L 38.578125 27.158203 L 37.123047 31.060547 L 26.207031 29.595703 L 23.779297 37.402344 L 39.548828 36.914062 L 43.914062 29.839844 L 45.855469 25.9375 L 51.191406 27.644531 L 53.375 21.060547 L 58.470703 20.328125 L 65.503906 21.791016 L 58.712891 18.376953 z M 72.296875 25.449219 L 71.326172 26.914062 L 75.451172 31.060547 L 75.693359 36.425781 L 77.390625 40.816406 L 78.847656 42.279297 L 78.119141 51.304688 L 66.960938 55.451172 L 61.138672 73.988281 L 67.6875 72.523438 L 71.568359 55.695312 L 79.816406 53.011719 L 80.544922 42.767578 L 83.455078 43.011719 L 78.847656 40.083984 L 77.876953 36.425781 L 77.634766 30.816406 L 72.296875 25.449219 z M 53.132812 32.523438 L 48.28125 32.767578 L 45.613281 42.035156 L 37.849609 42.767578 L 36.394531 47.888672 L 22.566406 48.621094 L 27.419922 56.914062 L 39.548828 53.5 L 41.003906 47.402344 L 47.796875 44.962891 L 49.978516 34.71875 L 53.132812 32.523438 z M 54.587891 46.914062 L 52.890625 54.71875 L 48.765625 54.474609 L 45.371094 60.328125 L 39.791016 60.572266 L 34.453125 68.376953 L 39.548828 71.304688 L 42.216797 64.474609 L 48.039062 63.011719 L 49.978516 56.914062 L 54.103516 56.914062 L 54.587891 46.914062 z M 84.34375 66.90625 C 84.222708 66.980102 84.093081 67.065598 83.955078 67.160156 C 83.819195 67.252127 83.676663 67.360161 83.527344 67.484375 C 83.378024 67.608589 83.221048 67.752261 83.056641 67.916016 C 82.894353 68.077182 82.724799 68.265636 82.548828 68.480469 C 82.249889 68.845425 82.041062 69.239141 81.923828 69.662109 C 81.804006 70.082958 81.772877 70.509631 81.830078 70.941406 C 81.889399 71.370593 82.039101 71.789777 82.277344 72.201172 C 82.515587 72.612567 82.841724 72.988903 83.255859 73.328125 C 83.69329 73.686428 84.137634 73.941189 84.587891 74.09375 C 85.040267 74.243722 85.477343 74.306675 85.900391 74.28125 C 86.32297 74.251116 86.719199 74.139086 87.089844 73.945312 C 87.4579 73.749419 87.779237 73.484287 88.052734 73.150391 C 88.196904 72.974383 88.331449 72.787354 88.457031 72.591797 C 88.582614 72.39624 88.693985 72.200044 88.792969 72 C 88.896661 71.799487 88.987909 71.602984 89.066406 71.412109 C 89.144436 71.216526 89.208448 71.033998 89.255859 70.865234 C 89.153262 70.789846 89.020488 70.686303 88.857422 70.552734 L 88.296875 70.09375 L 87.699219 69.603516 C 87.642275 69.556873 87.607602 69.501164 87.59375 69.433594 C 87.582018 69.363435 87.58968 69.296743 87.619141 69.234375 L 87.919922 68.65625 L 87.736328 68.505859 L 86.039062 70.580078 L 86.220703 70.728516 L 86.767578 70.275391 C 86.820334 70.232104 86.883514 70.210497 86.955078 70.212891 C 87.026174 70.210576 87.089541 70.232654 87.146484 70.279297 L 88.435547 71.335938 C 88.4228 71.399021 88.398661 71.490887 88.363281 71.613281 C 88.327433 71.730967 88.281658 71.86229 88.224609 72.005859 C 88.167092 72.14472 88.097701 72.288835 88.017578 72.439453 C 87.934866 72.587952 87.842001 72.725369 87.740234 72.849609 C 87.5155 73.123974 87.253805 73.31547 86.953125 73.423828 C 86.649857 73.530066 86.323231 73.562474 85.974609 73.523438 C 85.625519 73.479693 85.263346 73.367021 84.888672 73.185547 C 84.513998 73.004073 84.1403 72.762331 83.767578 72.457031 C 83.379326 72.139011 83.070676 71.821132 82.841797 71.503906 C 82.615038 71.184092 82.462451 70.874953 82.382812 70.576172 C 82.300586 70.275271 82.290441 69.988733 82.351562 69.71875 C 82.410095 69.446647 82.530559 69.19916 82.712891 68.976562 C 82.816777 68.849734 82.930395 68.728493 83.056641 68.611328 C 83.182418 68.489455 83.312486 68.378096 83.445312 68.279297 C 83.575551 68.178378 83.707264 68.089095 83.839844 68.011719 C 83.972423 67.934342 84.097821 67.874576 84.214844 67.832031 C 84.265232 67.812755 84.312758 67.798453 84.359375 67.789062 C 84.408112 67.777084 84.460855 67.782222 84.517578 67.802734 L 85.40625 68.134766 L 85.582031 67.921875 L 84.34375 66.90625 z M 81.052734 70.691406 L 79.416016 72.136719 L 79.572266 72.314453 L 80.160156 72.015625 C 80.221369 71.983834 80.285471 71.97308 80.353516 71.984375 C 80.421851 71.990947 80.48223 72.02438 80.533203 72.082031 L 83.685547 75.646484 L 82.875 75.443359 L 77.232422 74.068359 L 76.251953 74.935547 L 76.328125 75.044922 L 76.078125 75.308594 L 76.125 75.361328 L 76.744141 75.023438 C 76.805353 74.991646 76.869455 74.980893 76.9375 74.992188 C 77.005835 74.998759 77.066215 75.032192 77.117188 75.089844 L 80.779297 79.232422 C 80.825837 79.28506 80.850932 79.348236 80.853516 79.421875 C 80.856389 79.490791 80.837879 79.552518 80.798828 79.609375 L 80.431641 80.15625 L 80.587891 80.333984 L 82.21875 78.890625 L 82.0625 78.712891 L 81.476562 79.011719 C 81.41535 79.04351 81.349585 79.0554 81.28125 79.048828 C 81.213205 79.037534 81.154488 79.004917 81.103516 78.947266 L 77.671875 75.066406 L 78.576172 75.292969 L 84.685547 76.777344 L 84.896484 76.591797 L 84.214844 75.59375 L 80.857422 71.794922 C 80.808665 71.739777 80.78357 71.676601 80.783203 71.605469 C 80.782836 71.534337 80.802746 71.47092 80.841797 71.414062 L 81.208984 70.867188 L 81.052734 70.691406 z M 76.078125 75.308594 L 75.96875 75.185547 L 76.251953 74.935547 L 76.193359 74.851562 L 74.015625 76.359375 L 74.050781 76.410156 L 74.314453 76.265625 L 74.410156 76.441406 L 74.748047 76.296875 C 74.812594 76.272557 74.877131 76.269788 74.943359 76.289062 C 75.012339 76.306433 75.069495 76.346874 75.113281 76.410156 L 78.289062 81 C 78.330945 81.060531 78.347904 81.126591 78.339844 81.197266 C 78.334535 81.266037 78.309182 81.325121 78.263672 81.376953 L 77.816406 81.851562 L 77.951172 82.044922 L 80.128906 80.539062 L 79.994141 80.34375 L 79.398438 80.591797 C 79.331139 80.618018 79.264341 80.623994 79.197266 80.609375 C 79.131037 80.590101 79.075036 80.549611 79.03125 80.486328 L 75.855469 75.896484 C 75.813587 75.835953 75.796627 75.769894 75.804688 75.699219 C 75.810844 75.625792 75.837303 75.56355 75.882812 75.511719 L 76.078125 75.308594 z M 74.410156 76.441406 L 74.148438 76.552734 L 74.050781 76.410156 L 69.341797 78.996094 L 69.875 78.794922 L 69.957031 79.013672 L 69.419922 79.394531 C 69.416414 79.396966 69.415495 79.401757 69.412109 79.404297 L 70.023438 80.517578 L 70.257812 80.388672 L 70.041016 79.242188 C 70.03153 79.190143 70.03072 79.143429 70.041016 79.099609 C 70.051312 79.055789 70.085872 79.016576 70.144531 78.984375 L 71.548828 78.214844 L 74.373047 83.361328 C 74.408468 83.425853 74.419941 83.494005 74.40625 83.566406 C 74.393882 83.634264 74.360813 83.690442 74.308594 83.734375 L 73.728516 84.208984 L 73.841797 84.416016 L 76.345703 83.041016 L 76.230469 82.833984 L 75.519531 83.070312 C 75.454432 83.090782 75.389088 83.08884 75.322266 83.064453 C 75.255443 83.040067 75.203047 82.995192 75.166016 82.927734 L 72.339844 77.779297 L 73.765625 76.998047 C 73.821351 76.967456 73.868639 76.960113 73.908203 76.976562 C 73.9507 76.991402 73.992434 77.01679 74.03125 77.052734 L 74.880859 77.851562 L 75.113281 77.722656 L 74.410156 76.441406 z M 69.412109 79.404297 L 69.224609 79.060547 L 69.341797 78.996094 L 67.837891 79.564453 L 67.919922 79.785156 L 68.576172 79.714844 C 68.644678 79.706805 68.70795 79.719234 68.767578 79.753906 C 68.829151 79.784265 68.873153 79.836231 68.900391 79.908203 L 70.345703 83.724609 C 70.385968 83.831003 70.417893 83.950526 70.443359 84.083984 C 70.467641 84.214314 70.476529 84.352746 70.470703 84.498047 C 70.463693 84.640219 70.438332 84.784653 70.394531 84.933594 C 70.349547 85.079405 70.278724 85.222795 70.181641 85.363281 C 70.083373 85.500638 69.954331 85.630069 69.792969 85.751953 C 69.634736 85.872653 69.43704 85.978355 69.199219 86.068359 C 68.964527 86.157179 68.748872 86.210311 68.554688 86.226562 C 68.359319 86.239684 68.181766 86.225795 68.023438 86.185547 C 67.867054 86.140986 67.730239 86.077186 67.609375 85.994141 C 67.487327 85.907966 67.378281 85.81326 67.285156 85.708984 C 67.193977 85.600395 67.114974 85.487204 67.048828 85.369141 C 66.984627 85.246764 66.932074 85.131007 66.890625 85.021484 L 65.439453 81.185547 C 65.413399 81.116704 65.411862 81.049838 65.433594 80.984375 C 65.45727 80.914599 65.498024 80.859644 65.554688 80.820312 L 66.103516 80.472656 L 66.019531 80.251953 L 63.537109 81.191406 L 63.621094 81.412109 L 64.263672 81.308594 C 64.332178 81.300555 64.39818 81.314168 64.460938 81.347656 C 64.523695 81.381144 64.568465 81.433887 64.595703 81.505859 L 66.144531 85.597656 C 66.236904 85.841736 66.375914 86.059463 66.5625 86.25 C 66.749086 86.440537 66.97559 86.587649 67.240234 86.691406 C 67.506823 86.79085 67.806213 86.838912 68.140625 86.833984 C 68.473852 86.825928 68.834633 86.748411 69.222656 86.601562 C 69.375988 86.543534 69.533103 86.464021 69.695312 86.363281 C 69.858706 86.26567 70.014103 86.149602 70.160156 86.015625 C 70.308155 85.877334 70.440453 85.722655 70.558594 85.552734 C 70.675551 85.379685 70.766067 85.193659 70.830078 84.994141 C 70.892905 84.791493 70.923743 84.577118 70.919922 84.349609 C 70.916101 84.122101 70.865457 83.882373 70.769531 83.628906 L 69.304688 79.755859 C 69.278634 79.687017 69.275143 79.62015 69.296875 79.554688 C 69.320197 79.492166 69.360801 79.44278 69.412109 79.404297 z M 31.275391 76.556641 L 31.150391 76.755859 L 31.619141 77.207031 C 31.666796 77.256897 31.69492 77.31628 31.703125 77.384766 C 31.714159 77.455038 31.699281 77.522817 31.658203 77.587891 L 28.677734 82.306641 C 28.638443 82.368885 28.585764 82.409423 28.517578 82.429688 C 28.452222 82.451738 28.385828 82.451261 28.320312 82.429688 L 27.708984 82.205078 L 27.583984 82.404297 L 29.824219 83.818359 L 29.951172 83.619141 L 29.488281 83.167969 C 29.437796 83.116317 29.405398 83.055724 29.392578 82.988281 C 29.384373 82.919795 29.402282 82.854136 29.443359 82.789062 L 32.421875 78.068359 C 32.461166 78.006115 32.513846 77.965577 32.582031 77.945312 C 32.652003 77.922218 32.719641 77.921786 32.785156 77.943359 L 32.996094 78.021484 L 33.066406 77.869141 L 33.462891 78.054688 L 33.515625 77.970703 L 31.275391 76.556641 z M 33.462891 78.054688 L 33.390625 78.169922 L 32.996094 78.021484 L 32.966797 78.083984 L 33.523438 78.515625 C 33.577049 78.559024 33.614009 78.612801 33.630859 78.679688 C 33.652154 78.744952 33.645747 78.813043 33.613281 78.882812 L 31.279297 83.896484 C 31.249654 83.960187 31.201231 84.009209 31.134766 84.041016 C 31.072745 84.071201 31.009134 84.07947 30.941406 84.066406 L 30.292969 83.947266 L 30.193359 84.160156 L 32.167969 85.080078 L 32.267578 84.865234 L 31.759766 84.447266 C 31.706154 84.403867 31.669733 84.348467 31.648438 84.283203 C 31.631587 84.216317 31.639409 84.147895 31.671875 84.078125 L 33.855469 79.382812 L 34.009766 80.302734 L 35.091797 86.496094 L 35.345703 86.613281 L 35.988281 85.589844 L 38.126953 80.994141 C 38.158008 80.927404 38.206431 80.880336 38.271484 80.851562 C 38.336538 80.822789 38.402976 80.815061 38.470703 80.828125 L 39.119141 80.945312 L 39.21875 80.732422 L 37.238281 79.810547 L 37.138672 80.025391 L 37.646484 80.443359 C 37.700096 80.486758 37.735103 80.542489 37.751953 80.609375 C 37.773248 80.674639 37.768794 80.74273 37.736328 80.8125 L 35.728516 85.125 L 35.591797 84.302734 L 34.595703 78.582031 L 33.462891 78.054688 z M 62.5625 81.435547 C 62.253289 81.436498 61.931716 81.476118 61.599609 81.554688 L 59.128906 82.138672 L 59.146484 82.208984 L 59.650391 82.164062 L 59.667969 82.355469 L 59.833984 82.349609 C 59.902955 82.350483 59.964879 82.371981 60.019531 82.414062 C 60.077439 82.455374 60.115096 82.513004 60.132812 82.587891 L 61.416016 88.017578 C 61.432962 88.089209 61.425837 88.157824 61.392578 88.220703 C 61.362575 88.282812 61.317127 88.329643 61.255859 88.361328 L 60.666016 88.638672 L 60.720703 88.869141 L 63.382812 88.240234 L 63.328125 88.009766 L 62.599609 88.042969 C 62.531409 88.045351 62.468064 88.025686 62.410156 87.984375 C 62.352248 87.943064 62.314592 87.885434 62.296875 87.810547 L 61.712891 85.349609 C 61.791279 85.375761 61.877338 85.398805 61.96875 85.421875 C 62.059392 85.441689 62.14918 85.459354 62.238281 85.472656 C 62.329868 85.481932 62.417886 85.48605 62.503906 85.486328 C 62.589156 85.483351 62.669254 85.472795 62.744141 85.455078 C 63.059967 85.380361 63.341526 85.260571 63.587891 85.095703 C 63.834255 84.930835 64.034747 84.732576 64.189453 84.5 C 64.343389 84.264168 64.445299 83.999025 64.496094 83.705078 C 64.546118 83.407875 64.532464 83.091222 64.453125 82.755859 C 64.378407 82.440033 64.249794 82.186036 64.066406 81.992188 C 63.886275 81.797569 63.667406 81.655335 63.412109 81.564453 C 63.156813 81.473571 62.874197 81.43057 62.5625 81.435547 z M 59.667969 82.355469 L 59.183594 82.369141 L 59.146484 82.208984 L 57.621094 82.34375 L 56.128906 87.982422 L 55.689453 86.992188 L 53.691406 82.691406 L 51.642578 82.871094 L 51.662109 83.107422 L 52.308594 83.179688 C 52.376724 83.190458 52.436333 83.22199 52.484375 83.271484 C 52.53575 83.320684 52.563534 83.38233 52.570312 83.458984 L 53.060547 88.988281 C 53.066735 89.05827 53.047509 89.124763 53.005859 89.185547 C 52.967248 89.242703 52.916745 89.28213 52.851562 89.304688 L 52.230469 89.525391 L 52.251953 89.759766 L 54.421875 89.568359 L 54.400391 89.333984 L 53.75 89.224609 C 53.68187 89.213839 53.623345 89.186491 53.572266 89.140625 C 53.524224 89.091131 53.497012 89.027827 53.490234 88.951172 L 52.984375 83.226562 L 53.328125 83.982422 L 55.865234 89.441406 L 56.070312 89.423828 L 56.490234 88.232422 L 57.720703 83.583984 L 57.917969 82.800781 L 58.425781 88.544922 C 58.432265 88.618244 58.414991 88.682784 58.373047 88.740234 C 58.334435 88.79739 58.28198 88.836817 58.216797 88.859375 L 57.59375 89.050781 L 57.615234 89.287109 L 60.259766 89.052734 L 60.238281 88.818359 L 59.591797 88.738281 C 59.523667 88.727511 59.465142 88.700163 59.414062 88.654297 C 59.366021 88.604803 59.338809 88.541499 59.332031 88.464844 L 58.839844 82.90625 C 58.83336 82.832928 58.85006 82.76614 58.888672 82.708984 C 58.930321 82.648201 58.983645 82.606542 59.048828 82.583984 L 59.671875 82.398438 L 59.667969 82.355469 z M 43.300781 81.642578 C 43.077231 81.638338 42.857456 81.658507 42.640625 81.701172 C 42.210954 81.78396 41.816644 81.947634 41.457031 82.193359 C 41.097419 82.439085 40.784548 82.760794 40.521484 83.158203 C 40.261687 83.556338 40.075058 84.016467 39.958984 84.539062 C 39.838558 85.081256 39.803662 85.586909 39.857422 86.054688 C 39.915174 86.519926 40.052197 86.934633 40.265625 87.300781 C 40.479778 87.663663 40.76606 87.971565 41.125 88.222656 C 41.487932 88.471207 41.915003 88.650221 42.408203 88.759766 C 42.649904 88.81345 42.895442 88.831536 43.142578 88.814453 C 43.388989 88.800636 43.625254 88.766487 43.853516 88.710938 C 44.085769 88.652848 44.304594 88.581675 44.507812 88.5 C 44.711756 88.415058 44.893428 88.330668 45.052734 88.246094 L 45.144531 87.835938 L 45.054688 87.816406 C 44.933847 87.882105 44.798309 87.950477 44.648438 88.023438 C 44.501832 88.097123 44.336555 88.159748 44.150391 88.210938 C 43.964951 88.258861 43.761159 88.288419 43.539062 88.300781 C 43.317691 88.309878 43.072518 88.28605 42.804688 88.226562 C 41.994664 88.046649 41.429886 87.650299 41.109375 87.041016 C 40.788864 86.431733 40.741681 85.616078 40.96875 84.59375 C 41.077569 84.103817 41.221153 83.687803 41.400391 83.34375 C 41.580354 82.996431 41.786793 82.719464 42.017578 82.513672 C 42.248364 82.30788 42.499676 82.17191 42.771484 82.105469 C 43.044019 82.035762 43.324541 82.03309 43.615234 82.097656 C 43.74915 82.1274 43.886755 82.169826 44.025391 82.224609 C 44.167292 82.280119 44.30517 82.345541 44.439453 82.419922 C 44.574461 82.491037 44.701271 82.56716 44.820312 82.648438 C 44.939354 82.729715 45.045258 82.810571 45.136719 82.892578 C 45.176642 82.928864 45.210835 82.96653 45.240234 83.003906 C 45.269634 83.041282 45.284562 83.092518 45.287109 83.158203 L 45.410156 84.085938 L 45.669922 84.142578 L 46.017578 82.580078 C 45.897086 82.505333 45.75411 82.424746 45.587891 82.339844 C 45.421671 82.254942 45.245274 82.174434 45.060547 82.095703 C 44.87582 82.016973 44.689582 81.944572 44.501953 81.878906 C 44.314324 81.813241 44.140514 81.76211 43.980469 81.726562 C 43.7502 81.675418 43.524331 81.646818 43.300781 81.642578 z M 61.96875 81.878906 C 62.106822 81.870309 62.23496 81.877889 62.351562 81.898438 C 62.584767 81.939535 62.781477 82.020773 62.941406 82.144531 C 63.103821 82.264264 63.232298 82.41841 63.328125 82.605469 C 63.427207 82.791757 63.503078 82.992789 63.554688 83.210938 C 63.570863 83.279312 63.584078 83.367338 63.595703 83.474609 C 63.606558 83.578625 63.605861 83.693205 63.59375 83.816406 C 63.584895 83.938837 63.561596 84.063996 63.523438 84.193359 C 63.487764 84.318697 63.428325 84.438872 63.345703 84.554688 C 63.266337 84.669733 63.162599 84.774688 63.033203 84.867188 C 62.903036 84.956431 62.740278 85.024095 62.544922 85.070312 C 62.473291 85.087259 62.397272 85.101957 62.318359 85.117188 C 62.239446 85.132418 62.162365 85.146998 62.085938 85.158203 C 62.00874 85.166152 61.93592 85.173279 61.865234 85.179688 C 61.794549 85.186096 61.730957 85.188199 61.675781 85.1875 L 60.941406 82.085938 L 61.523438 81.949219 C 61.682979 81.911475 61.830678 81.887504 61.96875 81.878906 z M 49.029297 82.416016 C 48.528793 82.378968 48.075529 82.437992 47.667969 82.595703 C 47.260408 82.753414 46.907188 82.986226 46.609375 83.292969 C 46.311809 83.596375 46.0737 83.962433 45.894531 84.388672 C 45.718699 84.815158 45.613219 85.27684 45.576172 85.777344 C 45.537149 86.304541 45.570442 86.795847 45.677734 87.25 C 45.785274 87.700816 45.962423 88.097172 46.208984 88.4375 C 46.455793 88.774491 46.769998 89.046534 47.150391 89.255859 C 47.53103 89.461848 47.975814 89.585259 48.486328 89.623047 C 48.860037 89.650709 49.200101 89.624747 49.507812 89.546875 C 49.818614 89.472586 50.100108 89.359667 50.349609 89.207031 C 50.59911 89.054396 50.816693 88.868026 51.003906 88.650391 C 51.194703 88.429665 51.354506 88.190425 51.484375 87.931641 C 51.617581 87.673103 51.722001 87.401575 51.796875 87.115234 C 51.871749 86.828894 51.919919 86.540292 51.941406 86.25 C 51.977713 85.759506 51.947633 85.293011 51.849609 84.849609 C 51.75517 84.403118 51.587051 84.006663 51.347656 83.660156 C 51.111599 83.313896 50.800387 83.030376 50.414062 82.810547 C 50.031321 82.587628 49.569841 82.456027 49.029297 82.416016 z M 48.902344 82.769531 C 49.292737 82.798428 49.625784 82.905675 49.900391 83.09375 C 50.174997 83.281825 50.395921 83.533523 50.560547 83.847656 C 50.72851 84.162036 50.841173 84.531323 50.900391 84.955078 C 50.962945 85.37908 50.9765 85.841293 50.939453 86.341797 C 50.907345 86.775567 50.83089 87.176497 50.712891 87.546875 C 50.598475 87.914163 50.443438 88.230285 50.246094 88.494141 C 50.052086 88.758243 49.816469 88.960913 49.541016 89.101562 C 49.269146 89.239122 48.957774 89.295464 48.607422 89.269531 C 48.213692 89.240387 47.881534 89.128342 47.607422 88.933594 C 47.336646 88.739092 47.117504 88.483485 46.953125 88.166016 C 46.788993 87.845209 46.678359 87.472583 46.619141 87.048828 C 46.559923 86.625073 46.547678 86.168228 46.583984 85.677734 C 46.613622 85.277331 46.681244 84.896512 46.785156 84.535156 C 46.892652 84.170711 47.038981 83.85387 47.226562 83.585938 C 47.417727 83.314915 47.65154 83.103785 47.927734 82.953125 C 48.207266 82.802712 48.531971 82.742116 48.902344 82.769531 z "
           transform="matrix(0.99971219,0,0,0.99971219,63.63513,13.523971)"
           id="path4201" />
        <ellipse
           style="fill:none;fill-opacity:1;stroke:#000000;stroke-width:7.91383696;stroke-miterlimit:4;stroke-dasharray:none;stroke-opacity:0"
           id="path4209"
           cx="116.40656"
           cy="58.659966"
           rx="30.406017"
           ry="29.946367" />
        <ellipse
           style="fill:none;fill-opacity:1;stroke:#000000;stroke-width:8.2869997;stroke-miterlimit:4;stroke-dasharray:none;stroke-opacity:0"
           id="path4211"
           cx="119.39429"
           cy="59.924007"
           rx="2.6429923"
           ry="2.5280795" />
        <path
           style="fill:none;fill-opacity:1;stroke:#ff9900;stroke-width:4.58251476;stroke-miterlimit:4;stroke-dasharray:none;stroke-opacity:1"
           d="M 116.56641,24.642578 C 96.374169,24.001093 78.785641,44.0875 82.884766,64.044922 85.902336,84.495459 109.74795,97.572209 128.73623,89.804048 147.56921,83.564621 156.9774,59.137454 146.59926,42.075897 140.75584,31.333986 128.73959,24.551918 116.56641,24.642578 Z"
           id="path4213"
           inkscape:connector-curvature="0" />
        <path
           style="fill:none;fill-rule:evenodd;stroke:none;stroke-width:0.28222221px;stroke-linecap:butt;stroke-linejoin:miter;stroke-opacity:1"
           d="m 69.224609,81.957031 c 5.907329,20.476089 28.366984,31.188879 48.195311,30.599609 20.13495,0.25706 42.0406,-11.55714 48.52344,-31.830078 -32.23958,0.410157 -64.47917,0.820313 -96.718751,1.230469 z"
           id="path4585"
           inkscape:connector-curvature="0" />
        <path
           style="opacity:1;fill:none;fill-opacity:1;stroke:none;stroke-width:0.81617886;stroke-miterlimit:4;stroke-dasharray:none;stroke-opacity:1"
           d="m 103.68875,102.88916 c 21.94167,6.57037 48.06674,-6.759437 55.41558,-29.179317 8.41671,-22.456667 -4.42106,-48.956452 -26.47059,-56.366203 -21.79192,-8.5919469 -49.606538,3.479744 -58.109105,26.131219 -9.691956,22.44236 2.636073,50.124745 24.97348,57.984621 1.343905,0.61682 2.789145,0.96424 4.190625,1.42968 z"
           id="path4615"
           inkscape:connector-curvature="0" />
        <text
           xml:space="preserve"
           style="font-style:normal;font-weight:normal;font-size:11.28888893px;line-height:125%;font-family:sans-serif;letter-spacing:0px;word-spacing:0px;fill:#1cccfc;fill-opacity:1;stroke:#000000;stroke-width:0.14595798;stroke-linecap:butt;stroke-linejoin:miter;stroke-miterlimit:4;stroke-dasharray:none;stroke-opacity:1"
           x="66.197983"
           y="88.640877"
           id="text4647"
           sodipodi:linespacing="125%"><tspan
             sodipodi:role="line"
             id="tspan4649"
             x="66.197983"
             y="88.640877"
             style="font-style:normal;font-variant:normal;font-weight:normal;font-stretch:normal;font-size:19.75555611px;font-family:'Sitka Banner';-inkscape-font-specification:'Sitka Banner';letter-spacing:0.34989926px;fill:#1cccfc;stroke:#000000;stroke-width:0.14595798;stroke-miterlimit:4;stroke-dasharray:none;stroke-opacity:1">LATINAS</tspan></text>
      </g>
    </g>
  </g>
</svg>
